<svg width="256" height="256" viewBox="0 0 256 256" fill="none" xmlns="http://www.w3.org/2000/svg">
  <rect width="256" height="256" rx="48" fill="#FAF8F4"/>
  <rect x="28" y="28" width="200" height="200" rx="40" stroke="#A66E2F" stroke-width="10"/>
  <path d="M69 153C69 109.37 104.37 74 148 74C161.333 74 173.893 77.303 184.909 83.14L148 153H69Z" fill="#A66E2F"/>
  <circle cx="121" cy="103" r="8" fill="#FAF8F4"/>
  <circle cx="151" cy="120" r="8" fill="#FAF8F4"/>
  <circle cx="105" cy="135" r="7" fill="#FAF8F4"/>
  <path d="M69 153H148L184.909 83.14C210.109 96.49 227 123.17 227 153C227 196.63 191.63 232 148 232C104.37 232 69 196.63 69 153Z" fill="#1F252B" opacity="0.08"/>
  <text x="128" y="184" text-anchor="middle" font-family="Arial, Helvetica, sans-serif" font-size="42" font-weight="700" fill="#1F252B">OP</text>
</svg>
